<?xml version="1.0" standalone="no"?>
<!DOCTYPE svg PUBLIC "-//W3C//DTD SVG 20010904//EN"
 "http://www.w3.org/TR/2001/REC-SVG-20010904/DTD/svg10.dtd">
<svg version="1.0" xmlns="http://www.w3.org/2000/svg"
 width="260.000000pt" height="260.000000pt" viewBox="0 0 260.000000 260.000000"
 preserveAspectRatio="xMidYMid meet">
<metadata>
Created by potrace 1.14, written by Peter Selinger 2001-2017
</metadata>
<g transform="translate(0.000000,260.000000) scale(0.100000,-0.100000)"
fill="#000000" stroke="none">
<path d="M1920 2127 c-93 -33 -97 -204 -5 -243 44 -18 79 -18 115 1 85 44 81
205 -5 241 -41 17 -58 17 -105 1z"/>
<path d="M359 2085 c-1 0 -3 -43 -4 -96 l-2 -95 256 1 c141 0 262 -1 269 -3 9
-3 12 -165 12 -763 l0 -759 108 0 107 0 0 759 c0 668 2 760 15 763 8 2 128 3
267 3 l252 -1 0 93 c0 65 -4 93 -12 94 -8 1 -1048 4 -1268 4z"/>
<path d="M1866 1651 c-1 -3 -2 -292 -2 -641 l1 -635 105 -3 105 -3 0 641 c0
561 -2 641 -15 644 -24 6 -190 4 -194 -3z"/>
</g>
</svg>
